<svg height="512" viewBox="0 0 512 512" width="512" xmlns="http://www.w3.org/2000/svg"><g id="Flat"><g fill="#4d4d4d"><path d="m392 112 86.91125-36.213a14.76922 14.76922 0 0 0 9.08875-13.63314 14.76921 14.76921 0 0 0 -20.44968-13.63316l-75.55032 31.4793z"/><path d="m160 144h16v136h-16z"/><path d="m288.33 144h16v136h-16z"/><path d="m224 144h16v136h-16z"/><path d="m110.4 224h233.6v16h-233.6z"/><path d="m105.6 184h238.4v16h-238.4z"/></g><path d="m416.57007 303.42993a79.78909 79.78909 0 0 0 -56.57007-23.42993l32-168h-344l64 200h248a48 48 0 0 1 0 96h-280a16 16 0 0 0 0 32h280a80.00216 80.00216 0 0 0 56.57007-136.57007zm-98.17017-23.42993h-176.6399l-43.52-136h247.3601z" fill="#eb352f"/><rect fill="#c7161f" height="32" rx="16" width="392" x="24" y="80"/><circle cx="152" cy="424" fill="#808080" r="48"/><circle cx="320" cy="424" fill="#808080" r="48"/><path d="m152 480a56 56 0 1 1 56-56 56.0629 56.0629 0 0 1 -56 56zm0-96a40 40 0 1 0 40 40 40.04584 40.04584 0 0 0 -40-40z" fill="#4d4d4d"/><path d="m320 480a56 56 0 1 1 56-56 56.0629 56.0629 0 0 1 -56 56zm0-96a40 40 0 1 0 40 40 40.04584 40.04584 0 0 0 -40-40z" fill="#4d4d4d"/><circle cx="152" cy="424" fill="#4d4d4d" r="16"/><circle cx="320" cy="424" fill="#4d4d4d" r="16"/></g></svg>